<svg width="25" height="25" viewBox="0 0 25 25" fill="none" xmlns="http://www.w3.org/2000/svg">
<path d="M5.48507 2.31381H18.6134C18.5532 1.47008 18.071 1.01807 17.1469 1.01807H6.9516C6.02751 1.01807 5.54532 1.47008 5.48507 2.31381ZM3.51634 5.09618H20.5923C20.4415 4.18212 19.9996 3.67992 18.9951 3.67992H5.10338C4.09894 3.67992 3.66702 4.18212 3.51634 5.09618ZM4.4304 23.6185H19.668C21.7575 23.6185 22.8122 22.5739 22.8122 20.5047V9.83725C22.8122 7.76807 21.7575 6.72342 19.668 6.72342H4.4304C2.33104 6.72342 1.27637 7.75804 1.27637 9.83725V20.5047C1.27637 22.5739 2.33104 23.6185 4.4304 23.6185ZM4.46052 22.0014C3.45608 22.0014 2.89358 21.4589 2.89358 20.4143V9.91761C2.89358 8.87297 3.45608 8.3406 4.46052 8.3406H19.638C20.6324 8.3406 21.1948 8.87297 21.1948 9.91761V20.4143C21.1948 21.4589 20.6324 22.0014 19.638 22.0014H18.3924C17.5688 20.1531 15.4393 18.1341 12.0342 18.1341C8.6391 18.1341 6.49958 20.1531 5.68598 22.0014H4.46052ZM12.0342 16.7379C13.7317 16.748 15.0978 15.2011 15.0978 13.373C15.0978 11.575 13.7317 10.1085 12.0342 10.1085C10.3366 10.1085 8.97055 11.575 8.97055 13.373C8.98062 15.2011 10.3366 16.7178 12.0342 16.7379Z" fill="#5A5A5C"/>
</svg>
