<svg width="24" height="24" viewBox="0 0 24 24" fill="none" xmlns="http://www.w3.org/2000/svg">
<path d="M5.44082 1.99545H18.5692C18.5089 1.15172 18.0268 0.699707 17.1027 0.699707H6.90735C5.98326 0.699707 5.50107 1.15172 5.44082 1.99545ZM3.47209 4.77782H20.548C20.3973 3.86376 19.9554 3.36156 18.9509 3.36156H5.05913C4.05469 3.36156 3.62277 3.86376 3.47209 4.77782ZM4.38615 23.3002H19.6238C21.7132 23.3002 22.7679 22.2555 22.7679 20.1863V9.51889C22.7679 7.44971 21.7132 6.40506 19.6238 6.40506H4.38615C2.28679 6.40506 1.23212 7.43968 1.23212 9.51889V20.1863C1.23212 22.2555 2.28679 23.3002 4.38615 23.3002ZM4.41627 21.683C3.41183 21.683 2.84933 21.1405 2.84933 20.0959V9.59925C2.84933 8.55461 3.41183 8.02224 4.41627 8.02224H19.5937C20.5882 8.02224 21.1506 8.55461 21.1506 9.59925V20.0959C21.1506 21.1405 20.5882 21.683 19.5937 21.683H18.3482C17.5245 19.8348 15.3951 17.8158 11.9899 17.8158C8.59484 17.8158 6.45533 19.8348 5.64173 21.683H4.41627ZM11.9899 16.4196C13.6875 16.4296 15.0535 14.8828 15.0535 13.0546C15.0535 11.2566 13.6875 9.79014 11.9899 9.79014C10.2924 9.79014 8.9263 11.2566 8.9263 13.0546C8.93637 14.8828 10.2924 16.3995 11.9899 16.4196Z" fill="white"/>
</svg>
