<svg width="25" height="25" viewBox="0 0 25 25" fill="none" xmlns="http://www.w3.org/2000/svg">
<g clip-path="url(#clip0_208_64814)">
<mask id="mask0_208_64814" style="mask-type:luminance" maskUnits="userSpaceOnUse" x="0" y="0" width="25" height="25">
<path d="M24.0442 0.416016H0.0441895V24.416H24.0442V0.416016Z" fill="white"/>
</mask>
<g mask="url(#mask0_208_64814)">
<path d="M22.0442 7.41602H15.0442V5.41602H22.0442V7.41602ZM23.7702 17.416C23.3282 18.713 21.7412 20.416 18.6692 20.416C15.5952 20.416 13.1052 18.687 13.1052 14.741C13.1052 10.831 15.4302 8.82102 18.5712 8.82102C21.6532 8.82102 23.5352 10.603 23.9462 13.247C24.0242 13.753 24.0552 14.435 24.0412 15.387H16.0142C16.1442 18.598 19.4972 18.699 20.6022 17.416H23.7702ZM16.0842 13.416H21.0492C20.9442 11.869 19.9132 11.197 18.5722 11.197C17.1062 11.197 16.2952 11.965 16.0842 13.416ZM6.51019 20.404H0.0441895V5.43702H6.99719C12.4732 5.51802 12.5772 10.881 9.71719 12.343C13.1782 13.603 13.2942 20.404 6.51019 20.404ZM3.04419 11.416H6.62819C9.13619 11.416 9.53419 8.41602 6.31619 8.41602H3.04419V11.416ZM6.43519 14.416H3.04419V17.432H6.38519C9.44019 17.432 9.25319 14.416 6.43519 14.416Z" fill="#5A5A5C"/>
</g>
</g>
<defs>
<clipPath id="clip0_208_64814">
<rect width="24" height="24" fill="white" transform="translate(0.0441895 0.416016)"/>
</clipPath>
</defs>
</svg>
