<svg width="24" height="24" viewBox="0 0 24 24" fill="none" xmlns="http://www.w3.org/2000/svg">
<g clip-path="url(#clip0_249_34)">
<path d="M17.749 6.25124C17.6364 6.13859 17.4948 6.05953 17.3398 6.02293C17.1849 5.98634 17.0228 5.99366 16.8718 6.04407L9.15747 8.6155C9.0313 8.65764 8.91666 8.72854 8.8226 8.8226C8.72854 8.91666 8.65764 9.0313 8.61549 9.15747L6.04407 16.8718C5.99367 17.0228 5.98634 17.1849 6.0229 17.3399C6.05946 17.4948 6.13846 17.6366 6.25105 17.7491C6.36364 17.8617 6.50536 17.9407 6.66034 17.9773C6.81531 18.0139 6.9774 18.0065 7.12844 17.9561L14.8427 15.3847C14.9689 15.3425 15.0835 15.2716 15.1776 15.1775C15.2716 15.0835 15.3425 14.9688 15.3847 14.8426L17.9561 7.12836C18.0064 6.97734 18.0137 6.81529 17.9771 6.66037C17.9405 6.50546 17.8615 6.36379 17.749 6.25124ZM8.21247 15.7877L10.1062 10.1062L13.8944 13.8943L8.21247 15.7877Z" fill="#5A5A5C"/>
<path d="M12 24C9.62663 24 7.30655 23.2962 5.33316 21.9776C3.35977 20.6591 1.8217 18.7849 0.913451 16.5922C0.0051994 14.3995 -0.232441 11.9867 0.230582 9.65892C0.693605 7.33115 1.83649 5.19295 3.51472 3.51472C5.19295 1.83649 7.33115 0.693605 9.65892 0.230582C11.9867 -0.232441 14.3995 0.0051994 16.5922 0.913451C18.7849 1.8217 20.6591 3.35977 21.9776 5.33316C23.2962 7.30655 24 9.62663 24 12C23.9964 15.1815 22.731 18.2317 20.4813 20.4813C18.2317 22.731 15.1815 23.9964 12 24ZM12 1.71429C9.96568 1.71429 7.97704 2.31754 6.28557 3.44775C4.59409 4.57795 3.27575 6.18436 2.49724 8.06383C1.71874 9.9433 1.51505 12.0114 1.91193 14.0066C2.3088 16.0019 3.28842 17.8346 4.72691 19.2731C6.16539 20.7116 7.99813 21.6912 9.99336 22.0881C11.9886 22.485 14.0567 22.2813 15.9362 21.5028C17.8156 20.7243 19.4221 19.4059 20.5523 17.7144C21.6825 16.023 22.2857 14.0343 22.2857 12C22.2826 9.27302 21.1979 6.65861 19.2697 4.73034C17.3414 2.80207 14.727 1.7174 12 1.71429Z" fill="#5A5A5C"/>
</g>
<defs>
<clipPath id="clip0_249_34">
<rect width="24" height="24" fill="white"/>
</clipPath>
</defs>
</svg>
