<svg width="25" height="25" viewBox="0 0 25 25" fill="none" xmlns="http://www.w3.org/2000/svg">
<g clip-path="url(#clip0_208_64743)">
<path d="M17.7931 6.72048C17.6806 6.60783 17.5389 6.52876 17.384 6.49217C17.229 6.45557 17.067 6.46289 16.9159 6.51331L9.20166 9.08474C9.07549 9.12688 8.96085 9.19778 8.86679 9.29184C8.77273 9.3859 8.70183 9.50054 8.65968 9.62671L6.08826 17.341C6.03786 17.492 6.03053 17.6541 6.06709 17.8091C6.10365 17.9641 6.18265 18.1058 6.29524 18.2184C6.40783 18.331 6.54955 18.41 6.70453 18.4465C6.8595 18.4831 7.02159 18.4758 7.17263 18.4254L14.8869 15.8539C15.0131 15.8118 15.1277 15.7408 15.2218 15.6468C15.3158 15.5527 15.3867 15.4381 15.4289 15.3119L18.0003 7.5976C18.0506 7.44658 18.0579 7.28453 18.0213 7.12961C17.9847 6.97469 17.9057 6.83303 17.7931 6.72048ZM8.25666 16.257L10.1504 10.5755L13.9386 14.3635L8.25666 16.257Z" fill="white"/>
<path d="M12.0442 24.4692C9.67082 24.4692 7.35074 23.7655 5.37735 22.4469C3.40396 21.1283 1.86589 19.2542 0.95764 17.0614C0.0493889 14.8687 -0.188251 12.4559 0.274771 10.1282C0.737794 7.80039 1.88068 5.66219 3.55891 3.98396C5.23714 2.30573 7.37534 1.16284 9.70311 0.69982C12.0309 0.236798 14.4437 0.474438 16.6364 1.38269C18.8291 2.29094 20.7032 3.82901 22.0218 5.8024C23.3404 7.77579 24.0442 10.0959 24.0442 12.4692C24.0406 15.6507 22.7752 18.7009 20.5255 20.9506C18.2759 23.2002 15.2257 24.4657 12.0442 24.4692ZM12.0442 2.18353C10.0099 2.18353 8.02123 2.78678 6.32976 3.91698C4.63828 5.04719 3.31993 6.6536 2.54143 8.53307C1.76293 10.4125 1.55924 12.4807 1.95612 14.4759C2.35299 16.4711 3.33261 18.3039 4.7711 19.7423C6.20958 21.1808 8.04232 22.1604 10.0375 22.5573C12.0328 22.9542 14.1009 22.7505 15.9804 21.972C17.8598 21.1935 19.4662 19.8752 20.5964 18.1837C21.7267 16.4922 22.3299 14.5036 22.3299 12.4692C22.3268 9.74226 21.2421 7.12785 19.3139 5.19958C17.3856 3.27131 14.7712 2.18664 12.0442 2.18353Z" fill="white"/>
</g>
<defs>
<clipPath id="clip0_208_64743">
<rect width="24" height="24" fill="white" transform="translate(0.0441895 0.469238)"/>
</clipPath>
</defs>
</svg>
