<svg width="25" height="25" viewBox="0 0 25 25" fill="none" xmlns="http://www.w3.org/2000/svg">
<path fill-rule="evenodd" clip-rule="evenodd" d="M17.1855 2.84255C16.2612 2.71872 15.0844 2.71873 13.6174 2.71875H10.296C8.82899 2.71873 7.6522 2.71872 6.7279 2.84255C5.77075 2.97079 4.97272 3.24401 4.33977 3.87475C3.67954 4.53268 3.40923 5.36992 3.28739 6.37884L3.28143 6.42819L3.28382 6.62355C3.07162 6.76226 2.87227 6.92315 2.68543 7.10999C1.93707 7.85836 1.60495 8.80731 1.44733 9.97973C1.29416 11.1189 1.29417 12.5746 1.29419 14.4124V14.5252L1.29426 14.958C1.29525 16.5825 1.30706 17.9145 1.44733 18.9578C1.60495 20.1301 1.93707 21.0792 2.68543 21.8276C3.4338 22.5759 4.38275 22.908 5.55517 23.0657C6.69438 23.2188 8.15002 23.2188 9.98778 23.2188H14.1006C15.9384 23.2188 17.394 23.2188 18.5332 23.0657C19.7056 22.908 20.6546 22.5759 21.403 21.8276C22.1513 21.0792 22.4834 20.1301 22.6411 18.9578C22.7942 17.8186 22.7942 16.363 22.7942 14.5252V14.4124C22.7942 12.5746 22.7942 11.1189 22.6411 9.97973C22.4834 8.80731 22.1513 7.85836 21.403 7.10999C21.1661 6.87315 20.9092 6.67799 20.6314 6.51687V6.42363L20.626 6.37884C20.5042 5.36992 20.2339 4.53268 19.5736 3.87475C18.9407 3.24401 18.1426 2.97079 17.1855 2.84255ZM2.79479 15.3087C2.7979 16.7838 2.81699 17.8879 2.93395 18.7579C3.06921 19.764 3.32288 20.3436 3.74609 20.7668C4.1693 21.1901 4.74895 21.4438 5.75504 21.579C6.7827 21.7172 8.13737 21.7188 10.0442 21.7188H14.0442C15.951 21.7188 17.3057 21.7172 18.3334 21.579C19.0974 21.4763 19.6156 21.3053 20.006 21.0436L17.3189 18.6252C16.5393 17.9235 15.3782 17.8537 14.52 18.4568L14.2218 18.6663C13.1285 19.4347 11.641 19.3059 10.6961 18.361L6.40635 14.0712C5.82934 13.4942 4.90377 13.4634 4.28965 14.0007L2.79479 15.3087ZM18.3224 17.5103L20.9106 19.8396C21.0164 19.5434 21.0963 19.1901 21.1544 18.7579C21.2926 17.7302 21.2942 16.3756 21.2942 14.4688C21.2942 12.562 21.2926 11.2073 21.1544 10.1796C21.0192 9.17351 20.7655 8.59386 20.3423 8.17065C19.9191 7.74744 19.3394 7.49377 18.3334 7.35851C17.3057 7.22034 15.951 7.21875 14.0442 7.21875H10.0442C8.13737 7.21875 6.7827 7.22034 5.75504 7.35851C4.74895 7.49377 4.1693 7.74744 3.74609 8.17065C3.32288 8.59386 3.06921 9.17351 2.93395 10.1796C2.82545 10.9867 2.80117 11.9954 2.79575 13.3148L3.3019 12.8719C4.51032 11.8145 6.3316 11.8752 7.46701 13.0106L11.7567 17.3003C12.1863 17.7297 12.8624 17.7884 13.3594 17.4391L13.6576 17.2295C15.0879 16.2243 17.023 16.3408 18.3224 17.5103ZM5.39857 4.93727C5.15861 5.17639 4.9866 5.48914 4.87214 5.9907C5.09083 5.94265 5.31844 5.90371 5.55517 5.87189C6.69438 5.71872 8.15001 5.71873 9.98777 5.71875H14.1006C15.9384 5.71873 17.394 5.71872 18.5332 5.87189C18.7044 5.89489 18.8707 5.92162 19.0324 5.95282C18.918 5.47329 18.7487 5.17031 18.5148 4.93727C18.2072 4.63075 17.7781 4.43535 16.9863 4.32927C16.1732 4.22033 15.0972 4.21875 13.5623 4.21875H10.3511C8.81616 4.21875 7.74016 4.22033 6.92708 4.32927C6.13531 4.43535 5.70617 4.63075 5.39857 4.93727Z" fill="#5A5A5C"/>
<path fill-rule="evenodd" clip-rule="evenodd" d="M17.5442 8.71875C16.3016 8.71875 15.2942 9.72611 15.2942 10.9688C15.2942 12.2113 16.3016 13.2188 17.5442 13.2188C18.7868 13.2188 19.7942 12.2113 19.7942 10.9688C19.7942 9.72611 18.7868 8.71875 17.5442 8.71875ZM17.5442 10.2188C17.13 10.2188 16.7942 10.5545 16.7942 10.9688C16.7942 11.383 17.13 11.7188 17.5442 11.7188C17.9584 11.7188 18.2942 11.383 18.2942 10.9688C18.2942 10.5545 17.9584 10.2188 17.5442 10.2188Z" fill="#5A5A5C"/>
</svg>
