<svg width="25" height="25" viewBox="0 0 25 25" fill="none" xmlns="http://www.w3.org/2000/svg">
<path fill-rule="evenodd" clip-rule="evenodd" d="M9.47276 9.19882H13.1871V11.0493C13.7225 9.98522 15.0945 9.02885 17.1556 9.02885C21.1065 9.02885 22.0442 11.1467 22.0442 15.0328V22.23H18.0442V15.9178C18.0442 13.7048 17.5088 12.4566 16.1471 12.4566C14.2585 12.4566 13.4728 13.8022 13.4728 15.9178V22.23H9.47276V9.19882ZM2.61562 22.06H6.61562V9.02885H2.61562V22.06ZM7.18705 4.77956C7.18705 5.11437 7.12054 5.44591 6.99131 5.75524C6.86208 6.06456 6.67267 6.34563 6.43389 6.58238C6.19511 6.81913 5.91164 7.00693 5.59966 7.13506C5.28768 7.26318 4.9533 7.32913 4.61562 7.32913C4.27793 7.32913 3.94356 7.26318 3.63158 7.13506C3.3196 7.00693 3.03612 6.81913 2.79734 6.58238C2.55856 6.34563 2.36915 6.06456 2.23993 5.75524C2.1107 5.44591 2.04419 5.11437 2.04419 4.77956C2.04419 4.10337 2.31511 3.45487 2.79734 2.97673C3.27958 2.4986 3.93363 2.22998 4.61562 2.22998C5.2976 2.22998 5.95166 2.4986 6.43389 2.97673C6.91613 3.45487 7.18705 4.10337 7.18705 4.77956Z" fill="#5A5A5C"/>
</svg>
